{"glyphs":{"0":{"ha":444,"x_min":13,"x_max":360,"o":"m 186 0 q 54 69 99 0 q 13 251 13 132 l 13 686 q 54 868 13 806 q 186 936 97 936 q 317 868 274 936 q 360 686 360 803 l 360 251 q 318 69 360 135 q 186 0 272 0 m 186 893 q 56 686 56 893 l 56 251 q 186 43 56 43 q 315 251 315 43 l 315 686 q 186 893 315 893 z "},"1":{"ha":269,"x_min":11,"x_max":196,"o":"m 153 936 l 196 936 l 196 0 l 151 0 l 151 861 l 44 724 l 11 751 l 153 936 l 153 936 z "},"2":{"ha":444,"x_min":17,"x_max":364,"o":"m 364 0 l 342 0 l 190 0 l 17 0 l 17 22 q 25 136 17 85 q 50 232 33 188 q 176 415 86 333 q 319 713 319 546 q 286 844 319 796 q 190 893 253 893 q 94 850 125 893 q 61 707 61 804 l 61 685 l 17 685 l 17 707 q 60 876 17 817 q 190 936 103 936 q 322 869 274 936 q 364 713 364 808 q 206 382 364 524 q 98 236 132 317 q 61 43 64 156 l 190 43 l 342 43 l 364 43 l 364 0 z "},"3":{"ha":421,"x_min":14,"x_max":361,"o":"m 288 429 q 337 360 313 406 q 361 242 361 315 q 314 65 361 131 q 188 0 267 0 q 56 67 101 0 q 14 247 14 129 l 14 269 l 58 269 l 58 247 q 93 92 58 140 q 188 43 125 43 q 282 97 247 43 q 308 160 300 124 q 317 242 317 197 q 297 342 317 304 q 257 399 278 379 q 201 435 229 425 q 151 446 172 446 l 111 446 l 111 489 l 151 489 q 206 501 176 489 q 259 539 235 514 q 300 602 283 564 q 317 693 317 640 q 308 774 317 738 q 282 839 300 811 q 188 893 249 893 q 58 688 58 893 l 58 665 l 14 665 l 14 688 q 56 868 14 806 q 188 936 101 936 q 319 861 274 936 q 361 693 361 799 q 337 575 361 621 q 288 506 313 529 q 235 467 263 481 q 288 429 265 451 z "},"4":{"ha":450,"x_min":14,"x_max":385,"o":"m 343 936 l 385 936 l 385 0 l 340 0 l 340 286 l 14 286 l 14 328 l 343 936 m 340 329 l 340 838 l 65 329 l 340 329 z "},"5":{"ha":431,"x_min":13,"x_max":360,"o":"m 360 893 l 57 893 l 57 513 q 186 583 104 583 q 318 519 271 583 q 360 343 360 458 l 360 244 q 349 152 360 196 q 318 76 338 108 q 186 0 271 0 q 56 65 100 0 q 13 244 13 129 l 13 260 l 57 260 l 57 244 q 92 90 57 139 q 186 43 122 43 q 281 100 247 43 q 307 165 299 128 q 315 244 315 201 l 315 343 q 282 494 315 446 q 186 539 251 539 q 92 486 125 539 q 57 343 57 432 l 57 338 l 57 335 l 13 335 l 13 338 l 13 343 l 13 936 l 57 936 l 360 936 l 360 893 z "},"6":{"ha":433,"x_min":13,"x_max":360,"o":"m 186 0 q 58 58 104 0 q 13 219 13 115 l 13 351 l 13 353 l 13 629 q 31 790 13 729 q 75 883 49 851 q 132 926 101 915 q 186 936 163 936 q 317 875 272 936 q 360 722 360 819 l 360 701 l 315 701 l 315 722 q 282 849 315 804 q 186 893 249 893 q 119 866 144 893 q 79 799 93 839 q 61 713 65 758 q 57 629 57 667 l 57 525 q 186 596 104 596 q 318 532 275 596 q 360 351 360 469 l 360 250 q 349 156 360 200 q 318 78 338 111 q 186 0 272 0 m 57 353 l 57 219 q 61 164 57 194 q 79 106 65 133 q 119 61 93 79 q 186 43 144 43 q 281 101 247 43 q 307 167 299 129 q 315 250 315 206 l 315 351 q 282 507 315 457 q 186 553 250 553 q 92 497 125 553 q 57 353 57 443 z "},"7":{"ha":522,"x_min":8,"x_max":471,"o":"m 50 0 l 424 893 l 8 893 l 8 936 l 471 936 l 471 894 l 97 0 l 50 0 l 50 0 z "},"8":{"ha":461,"x_min":10,"x_max":386,"o":"m 294 468 q 342 426 322 454 q 386 244 386 368 q 342 63 386 121 q 199 0 296 0 q 54 63 100 0 q 10 244 10 124 q 54 426 10 365 q 101 468 74 454 q 54 510 74 483 q 10 692 10 571 q 54 874 10 813 q 199 936 100 936 q 342 874 296 936 q 386 692 386 815 q 342 510 386 568 q 294 468 322 483 m 89 536 q 199 490 124 490 q 307 536 274 490 q 342 692 342 583 q 307 847 342 800 q 199 893 274 893 q 89 847 124 893 q 54 692 54 800 q 89 536 54 583 m 307 89 q 342 244 342 136 q 307 401 342 353 q 199 447 274 447 q 89 401 124 447 q 54 244 54 353 q 89 89 54 136 q 199 43 124 43 q 307 89 274 43 z "},"9":{"ha":428,"x_min":11,"x_max":358,"o":"m 185 0 q 54 64 99 0 q 11 226 11 124 l 11 249 l 56 249 l 56 226 q 89 89 56 136 q 185 43 122 43 q 250 67 225 43 q 290 130 275 92 q 309 215 304 168 q 314 306 314 261 l 314 411 q 259 358 292 376 q 185 339 226 339 q 54 404 99 339 q 11 586 11 465 l 11 689 q 58 869 11 801 q 185 936 106 936 q 315 876 271 936 q 358 719 358 821 l 358 586 l 358 585 l 358 306 q 318 85 358 163 q 185 0 274 0 m 185 893 q 90 838 125 893 q 56 689 56 781 l 56 586 q 90 429 56 478 q 185 383 121 383 q 279 439 246 383 q 305 503 296 465 q 314 585 314 540 l 314 719 q 281 850 314 806 q 185 893 249 893 z "}," ":{"ha":292,"x_min":0,"x_max":0,"o":""},"D":{"ha":483,"x_min":17,"x_max":393,"o":"m 176 0 l 17 0 l 17 936 l 176 936 q 342 869 288 936 q 393 683 393 808 l 393 253 q 342 67 393 128 q 176 0 288 0 m 60 43 l 176 43 q 308 94 267 43 q 349 253 349 144 l 349 683 q 308 842 349 792 q 176 893 267 893 l 60 893 l 60 43 z "},"E":{"ha":421,"x_min":14,"x_max":350,"o":"m 57 893 l 57 490 l 350 490 l 350 447 l 57 447 l 57 43 l 350 43 l 350 0 l 14 0 l 14 936 l 350 936 l 350 893 l 57 893 z "},"F":{"ha":428,"x_min":10,"x_max":346,"o":"m 346 893 l 53 893 l 53 490 l 346 490 l 346 447 l 53 447 l 53 0 l 10 0 l 10 936 l 346 936 l 346 893 l 346 893 z "},"G":{"ha":489,"x_min":14,"x_max":414,"o":"m 214 0 q 63 64 114 0 q 14 247 14 128 l 14 690 q 63 872 14 811 q 214 936 114 936 q 364 872 314 936 q 414 690 414 811 l 414 668 l 369 668 l 369 690 q 354 799 369 758 q 316 860 339 839 q 266 887 293 881 q 214 893 239 893 q 161 887 189 893 q 110 860 133 881 q 72 799 88 839 q 57 690 57 758 l 57 247 q 97 92 57 143 q 214 43 135 43 q 329 92 292 43 q 369 247 369 143 l 369 369 l 167 369 l 167 414 l 414 414 l 414 247 q 364 64 414 126 q 214 0 314 0 z "},"H":{"ha":478,"x_min":14,"x_max":386,"o":"m 342 936 l 386 936 l 386 0 l 342 0 l 342 446 l 58 446 l 58 0 l 14 0 l 14 936 l 58 936 l 58 489 l 342 489 l 342 936 l 342 936 z "},"I":{"ha":151,"x_min":32,"x_max":75,"o":"m 75 0 l 32 0 l 32 936 l 75 936 l 75 0 l 75 0 l 75 0 z "},"J":{"ha":450,"x_min":0,"x_max":371,"o":"m 186 0 q 46 60 93 0 q 0 229 0 115 l 0 250 l 43 250 l 43 229 q 57 130 43 167 q 92 74 71 93 q 138 49 113 54 q 186 43 163 43 q 292 86 256 43 q 328 229 328 133 l 328 936 l 371 936 l 371 229 q 325 60 371 115 q 186 0 279 0 z "},"K":{"ha":500,"x_min":11,"x_max":464,"o":"m 464 936 l 176 507 l 464 0 l 414 0 l 150 465 l 56 325 l 56 0 l 11 0 l 11 936 l 56 936 l 56 404 l 411 936 l 464 936 l 464 936 z "},"L":{"ha":410,"x_min":6,"x_max":364,"o":"m 364 0 l 6 0 l 6 936 l 50 936 l 50 43 l 364 43 l 364 0 l 364 0 l 364 0 z "},"M":{"ha":657,"x_min":10,"x_max":565,"o":"m 53 758 l 53 0 l 10 0 l 10 936 l 47 936 l 288 101 l 526 936 l 565 936 l 565 0 l 521 0 l 521 758 l 304 0 l 271 0 l 53 758 l 53 758 z "},"N":{"ha":500,"x_min":13,"x_max":417,"o":"m 57 801 l 57 0 l 13 0 l 13 936 l 50 936 l 372 135 l 372 936 l 417 936 l 417 0 l 381 0 l 57 801 l 57 801 z "},"O":{"ha":494,"x_min":14,"x_max":413,"o":"m 213 0 q 144 10 179 0 q 79 47 108 19 q 32 123 50 75 q 14 249 14 171 l 14 689 q 63 872 14 808 q 213 936 114 936 q 363 872 313 936 q 413 689 413 810 l 413 249 q 394 123 413 171 q 347 47 376 75 q 283 10 318 19 q 213 0 247 0 m 213 893 q 97 844 133 893 q 57 689 57 793 l 57 249 q 97 92 57 143 q 213 43 135 43 q 329 92 289 43 q 368 249 368 140 l 368 689 q 329 844 368 796 q 213 893 290 893 z "},"P":{"ha":472,"x_min":15,"x_max":401,"o":"m 58 0 l 15 0 l 15 936 l 183 936 q 349 875 296 936 q 401 692 401 814 q 349 508 401 569 q 183 447 296 447 l 58 447 l 58 0 m 58 490 l 183 490 q 317 538 275 490 q 357 692 357 586 q 317 847 357 800 q 183 893 276 893 l 58 893 l 58 490 z "},"Q":{"ha":483,"x_min":8,"x_max":446,"o":"m 389 -43 l 325 35 q 208 0 278 0 q 58 68 108 0 q 8 253 8 132 l 8 693 q 58 874 8 813 q 208 936 108 936 q 357 874 307 936 q 407 693 407 813 l 407 253 q 358 68 407 133 l 356 65 l 446 -43 l 389 -43 m 208 43 q 297 68 261 43 l 235 144 l 290 144 l 328 100 q 363 253 363 151 l 363 693 q 324 847 363 799 q 208 893 286 893 q 93 847 131 893 q 53 693 53 796 l 53 253 q 93 94 53 147 q 208 43 131 43 z "},"R":{"ha":483,"x_min":15,"x_max":403,"o":"m 340 426 q 403 261 403 367 l 403 1 l 358 1 l 358 261 q 313 392 358 346 q 183 439 267 439 l 163 439 l 58 439 l 58 1 l 15 1 l 15 938 l 183 938 q 348 877 296 938 q 400 689 400 817 q 349 503 400 564 q 293 460 326 476 q 340 426 319 447 m 183 483 q 315 531 276 483 q 357 689 357 581 q 317 846 357 799 q 183 893 276 893 l 58 893 l 58 483 l 163 483 l 183 483 z "},"T":{"ha":557,"x_min":7,"x_max":499,"o":"m 499 938 l 499 893 l 274 893 l 274 1 l 231 1 l 231 893 l 7 893 l 7 938 l 499 938 l 499 938 z "},"U":{"ha":483,"x_min":10,"x_max":381,"o":"m 196 1 q 131 10 164 1 q 72 44 99 19 q 27 115 44 69 q 10 231 10 160 l 10 938 l 53 938 l 53 231 q 67 131 53 168 q 101 75 81 94 q 147 50 122 56 q 196 44 172 44 q 243 50 218 44 q 289 75 268 56 q 324 131 310 94 q 338 231 338 168 l 338 938 l 381 938 l 381 231 q 363 115 381 160 q 319 44 346 69 q 260 10 293 19 q 196 1 226 1 z "},"V":{"ha":557,"x_min":0,"x_max":503,"o":"m 457 938 l 503 938 l 268 1 l 235 1 l 0 938 l 44 938 l 251 113 l 457 938 l 457 938 z "},"W":{"ha":904,"x_min":0,"x_max":840,"o":"m 794 936 l 840 936 l 636 0 l 600 0 l 421 813 l 242 0 l 207 0 l 0 936 l 44 936 l 225 124 l 404 936 l 439 936 l 618 124 l 794 936 l 794 936 z "},"X":{"ha":544,"x_min":-6,"x_max":488,"o":"m -6 0 l 217 468 l -6 936 l 43 936 l 242 519 l 436 936 l 485 936 l 265 468 l 488 0 l 439 0 l 242 417 l 43 0 l -6 0 l -6 0 z "},"Y":{"ha":579,"x_min":-14,"x_max":550,"o":"m 500 936 l 550 936 l 290 463 l 290 0 l 247 0 l 247 463 l -14 936 l 36 936 l 268 514 l 500 936 l 500 936 z "},"Z":{"ha":568,"x_min":0,"x_max":463,"o":"m 56 43 l 463 43 l 463 0 l 7 0 l 7 43 l 406 893 l 0 893 l 0 936 l 456 936 l 456 896 l 56 43 l 56 43 z "},"!":{"ha":129,"x_min":13,"x_max":56,"o":"m 13 938 l 56 938 l 56 138 l 13 138 l 13 938 m 13 1 l 13 61 l 56 61 l 56 1 l 13 1 z "},"\"":{"ha":225,"x_min":14,"x_max":140,"o":"m 14 814 l 14 936 l 57 936 l 57 814 l 14 814 m 96 936 l 140 936 l 140 814 l 96 814 l 96 936 z "},"#":{"ha":753,"x_min":-28,"x_max":679,"o":"m 106 0 l 167 314 l -28 314 l -28 358 l 175 358 l 218 576 l 15 576 l 15 621 l 226 621 l 288 936 l 333 936 l 271 621 l 468 621 l 528 936 l 572 936 l 513 621 l 679 621 l 679 576 l 503 576 l 461 358 l 636 358 l 636 314 l 451 314 l 392 0 l 347 0 l 407 314 l 211 314 l 150 0 l 106 0 m 263 576 l 219 358 l 415 358 l 458 576 l 263 576 z "},"$":{"ha":444,"x_min":26,"x_max":372,"o":"m 231 471 q 274 449 249 463 q 320 413 299 435 q 357 357 342 390 q 372 275 372 324 q 362 194 372 231 q 331 129 351 157 q 221 68 290 76 l 221 0 l 178 0 l 178 68 q 123 82 150 71 q 74 117 96 93 q 40 180 53 140 q 26 281 26 219 l 26 303 l 69 303 l 69 281 q 79 199 69 231 q 104 148 89 167 q 139 121 119 129 q 178 111 158 113 l 178 449 q 172 451 175 450 q 167 454 169 453 q 124 478 149 464 q 78 515 100 492 q 42 572 57 538 q 26 654 26 606 q 68 803 26 746 q 178 867 107 858 l 178 936 l 221 936 l 221 867 q 276 853 249 864 q 324 819 303 843 q 359 754 346 794 q 372 654 372 714 l 372 632 l 329 632 l 329 654 q 319 736 329 704 q 294 787 310 768 q 260 813 279 806 q 221 824 240 821 l 221 475 q 226 473 224 474 q 231 471 228 472 m 69 654 q 80 592 69 618 q 106 549 90 567 q 140 519 121 532 q 178 499 160 507 l 178 822 q 128 802 149 818 q 94 763 107 786 q 75 711 81 739 q 69 654 69 683 m 221 113 q 301 162 272 119 q 329 275 329 204 q 319 336 329 311 q 292 378 308 361 q 257 407 276 396 q 221 426 238 418 l 221 113 z "},"%":{"ha":624,"x_min":0,"x_max":567,"o":"m 228 625 q 196 533 228 568 q 114 497 164 497 q 32 533 64 497 q 0 625 0 568 l 0 744 q 32 837 0 801 q 114 872 64 872 q 196 837 164 872 q 228 744 228 801 l 228 625 m 43 625 q 59 569 43 596 q 114 542 75 542 q 168 569 153 542 q 183 625 183 596 l 183 744 q 168 801 183 774 q 114 828 153 828 q 59 801 75 828 q 43 744 43 774 l 43 625 m 454 436 q 535 401 504 436 q 567 310 567 367 l 567 190 q 535 98 567 133 q 454 63 504 63 q 372 98 403 63 q 340 190 340 133 l 340 310 q 372 401 340 367 q 454 436 403 436 m 524 310 q 520 338 524 324 q 508 365 517 353 q 487 385 500 378 q 454 393 474 393 q 421 385 435 393 q 399 365 407 378 q 387 338 390 353 q 383 310 383 324 l 383 190 q 399 133 383 161 q 454 106 414 106 q 508 133 493 106 q 524 190 524 161 l 524 310 m 496 936 l 121 0 l 74 0 l 449 936 l 496 936 z "},"&":{"ha":596,"x_min":0,"x_max":531,"o":"m 210 0 q 56 68 113 0 q 0 231 0 132 q 11 311 0 276 q 41 373 22 346 q 84 422 60 400 q 133 467 108 444 q 157 488 144 478 q 182 510 169 499 q 157 550 172 524 q 127 608 142 576 q 102 676 113 640 q 92 746 92 711 q 98 826 92 793 q 115 882 104 858 q 210 936 144 936 q 308 872 281 936 q 324 810 321 844 q 328 746 328 775 q 317 656 328 696 q 293 585 307 615 q 263 534 279 554 q 238 503 247 514 l 419 190 q 443 299 439 243 q 447 400 447 356 l 447 414 l 492 414 l 492 400 q 485 278 492 347 q 449 146 478 208 q 448 144 449 144 q 447 143 447 144 l 531 0 l 481 0 l 422 100 q 210 0 351 0 m 136 746 q 144 688 136 718 q 165 631 153 658 q 190 579 176 603 q 213 540 203 556 q 226 557 219 547 q 240 578 233 567 q 283 746 283 650 q 278 820 283 792 q 263 865 272 849 q 240 888 254 882 q 210 893 226 893 q 181 888 194 893 q 158 868 168 883 q 142 824 149 853 q 136 746 136 794 m 161 433 q 115 392 136 413 q 77 349 93 372 q 52 298 61 326 q 43 231 43 269 q 53 162 43 196 q 83 101 63 128 q 135 59 104 75 q 210 43 167 43 q 397 142 339 43 l 204 471 q 183 452 193 461 q 161 433 172 443 z "},"(":{"ha":231,"x_min":10,"x_max":167,"o":"m 143 3 q 119 25 140 6 q 74 96 97 44 q 26 255 42 163 q 10 465 10 347 q 30 697 10 607 q 74 840 50 788 q 118 912 97 892 q 142 933 139 932 l 167 896 q 149 878 158 889 q 131 853 140 868 q 110 814 121 838 q 72 686 90 769 q 53 465 53 603 q 72 246 53 329 q 110 119 90 163 q 130 81 121 96 q 147 57 139 67 q 165 40 156 46 l 143 3 z "},")":{"ha":219,"x_min":18,"x_max":175,"o":"m 42 3 l 18 40 q 35 58 25 47 q 52 83 42 68 q 74 122 63 99 q 112 249 93 165 q 131 471 131 333 q 126 594 131 539 q 113 691 121 649 q 94 765 104 733 q 75 817 85 796 q 37 879 54 863 q 18 896 19 896 l 19 896 l 42 933 q 66 912 44 931 q 111 840 88 893 q 175 471 175 708 q 155 239 175 329 q 110 97 135 149 q 65 24 86 44 q 42 3 43 4 z "},"*":{"ha":410,"x_min":14,"x_max":357,"o":"m 357 796 l 222 746 l 324 632 l 290 603 l 185 722 l 81 603 l 47 632 l 147 746 l 14 796 l 29 838 l 164 788 l 164 931 l 207 931 l 207 788 l 342 838 l 357 796 l 357 796 z "},"+":{"ha":533,"x_min":17,"x_max":467,"o":"m 467 486 l 467 442 l 264 442 l 264 239 l 219 239 l 219 442 l 17 442 l 17 486 l 219 486 l 219 689 l 264 689 l 264 486 l 467 486 l 467 486 z "},",":{"ha":118,"x_min":18,"x_max":61,"o":"m 61 -56 l 18 -56 l 18 60 l 61 60 l 61 -56 l 61 -56 l 61 -56 z "},"-":{"ha":415,"x_min":18,"x_max":357,"o":"m 357 446 l 18 446 l 18 489 l 357 489 l 357 446 l 357 446 l 357 446 z "},".":{"ha":113,"x_min":17,"x_max":61,"o":"m 61 0 l 17 0 l 17 60 l 61 60 l 61 0 l 61 0 l 61 0 z "},"/":{"ha":533,"x_min":29,"x_max":451,"o":"m 404 936 l 451 936 l 76 0 l 29 0 l 404 936 l 404 936 z "},":":{"ha":157,"x_min":19,"x_max":63,"o":"m 19 714 l 63 714 l 63 608 l 19 608 l 19 714 m 19 226 l 19 332 l 63 332 l 63 226 l 19 226 z "},";":{"ha":135,"x_min":18,"x_max":63,"o":"m 18 714 l 63 714 l 63 608 l 18 608 l 18 714 m 18 176 l 18 332 l 63 332 l 63 176 l 18 176 z "},"=":{"ha":433,"x_min":18,"x_max":357,"o":"m 357 571 l 18 571 l 18 614 l 357 614 l 357 571 m 357 279 l 18 279 l 18 322 l 357 322 l 357 279 z "},"?":{"ha":421,"x_min":19,"x_max":367,"o":"m 325 867 q 356 794 346 835 q 367 704 367 753 q 355 617 367 654 q 326 553 343 581 q 291 508 310 526 q 257 478 272 490 q 244 468 250 472 q 236 460 239 464 q 192 351 208 428 q 178 165 176 275 l 178 161 l 178 139 l 135 139 l 135 161 l 135 165 q 137 254 135 207 q 147 345 139 301 q 168 427 154 389 q 204 489 182 465 q 229 511 213 500 q 260 539 243 524 q 290 577 276 554 q 313 631 304 600 q 322 704 322 661 q 314 781 322 746 q 289 842 306 817 q 193 894 253 894 q 99 847 129 894 q 64 697 64 800 l 64 676 l 19 676 l 19 697 q 63 872 19 810 q 193 938 107 938 q 325 867 275 938 m 133 61 l 178 61 l 178 1 l 133 1 l 133 61 z "},"@":{"ha":899,"x_min":-7,"x_max":824,"o":"m 771 154 l 797 119 l 779 106 q 644 37 719 63 q 486 7 569 11 l 456 7 q 312 24 381 7 q 186 76 243 42 q 38 248 82 142 q 17 493 -7 354 q 62 638 29 572 q 144 757 94 704 q 247 835 190 804 q 369 879 304 865 q 490 888 431 892 q 601 864 549 883 q 696 810 653 844 q 769 729 739 776 q 804 651 792 694 q 820 560 817 607 q 818 467 824 514 q 796 378 813 419 q 749 310 781 340 q 680 260 718 281 q 602 233 642 240 q 532 235 563 226 q 488 264 503 242 q 476 318 474 286 q 429 299 456 303 q 371 296 403 296 q 261 335 294 296 q 235 467 222 378 q 285 596 244 551 q 406 643 329 643 q 457 639 425 643 q 513 618 489 635 q 524 608 521 613 q 526 619 526 619 l 529 640 l 572 633 l 569 611 q 566 592 569 611 q 558 543 563 572 q 547 478 553 514 q 535 410 540 443 q 526 352 531 378 q 521 315 522 326 q 544 276 515 285 q 567 274 556 274 q 617 282 589 274 q 673 306 646 290 q 722 344 700 322 q 756 394 744 367 q 775 472 769 431 q 777 556 781 514 q 763 638 774 599 q 733 706 751 676 q 668 777 707 747 q 583 824 629 807 q 485 844 538 840 q 379 836 433 847 q 278 800 329 825 q 183 732 228 775 q 106 628 139 689 q 60 486 72 567 q 78 267 40 363 q 210 114 117 171 q 339 63 268 78 q 483 51 410 47 q 627 78 557 56 q 754 142 697 100 l 771 154 m 371 340 q 425 344 406 340 q 458 360 444 347 q 485 410 474 375 q 507 504 496 444 q 506 559 514 543 q 488 582 499 575 q 455 594 476 590 q 406 599 433 599 q 317 567 347 599 q 292 523 301 549 q 278 461 282 497 q 293 364 269 389 q 371 340 315 340 z "},"\\":{"ha":528,"x_min":31,"x_max":453,"o":"m 78 936 l 453 0 l 406 0 l 31 936 l 78 936 l 78 936 z "},"_":{"ha":640,"x_min":28,"x_max":589,"o":"m 589 -43 l 28 -43 l 28 0 l 589 0 l 589 -43 l 589 -43 l 589 -43 z "},"‘":{"ha":113,"x_min":14,"x_max":57,"o":"m 14 814 l 14 936 l 57 936 l 57 814 l 14 814 l 14 814 z "},"“":{"ha":208,"x_min":14,"x_max":140,"o":"m 14 814 l 14 936 l 57 936 l 57 814 l 14 814 m 96 936 l 140 936 l 140 814 l 96 814 l 96 936 z "},"”":{"ha":208,"x_min":14,"x_max":140,"o":"m 14 814 l 14 936 l 57 936 l 57 814 l 14 814 m 96 936 l 140 936 l 140 814 l 96 814 l 96 936 z "},"’":{"ha":113,"x_min":14,"x_max":57,"o":"m 14 814 l 14 936 l 57 936 l 57 814 l 14 814 l 14 814 z "},"`":{"ha":113,"x_min":14,"x_max":57,"o":"m 14 814 l 14 936 l 57 936 l 57 814 l 14 814 l 14 814 z "},"'":{"ha":113,"x_min":14,"x_max":57,"o":"m 14 814 l 14 936 l 57 936 l 57 814 l 14 814 l 14 814 z "},"a":{"ha":544,"x_min":14,"x_max":478,"o":"m 58 0 l 14 0 l 88 325 l 88 329 l 88 329 l 229 936 l 264 936 l 478 0 l 433 0 l 369 286 l 122 286 l 58 0 m 246 818 l 133 329 l 360 329 l 246 818 z "},"b":{"ha":467,"x_min":24,"x_max":385,"o":"m 285 468 q 336 428 314 454 q 385 244 385 367 q 336 61 385 122 q 178 0 285 0 l 68 0 l 24 0 l 24 43 l 24 936 l 178 936 q 336 875 285 936 q 385 692 385 814 q 336 510 385 571 q 313 486 325 496 q 285 468 300 476 m 68 490 l 178 490 q 301 538 264 490 q 340 692 340 585 q 303 847 340 800 q 178 893 265 893 l 68 893 l 68 490 m 178 43 q 303 90 265 43 q 340 244 340 136 q 301 400 340 353 q 178 447 264 447 l 68 447 l 68 43 l 178 43 z "},"c":{"ha":478,"x_min":11,"x_max":410,"o":"m 211 0 q 141 10 176 0 q 76 47 106 19 q 29 123 47 75 q 11 249 11 171 l 11 689 q 29 814 11 765 q 76 890 47 863 q 141 926 106 917 q 211 936 176 936 q 280 926 244 936 q 344 890 315 917 q 392 814 374 863 q 410 689 410 765 l 410 667 l 365 667 l 365 689 q 326 844 365 796 q 211 893 286 893 q 94 844 135 893 q 56 689 56 796 l 56 249 q 96 92 56 142 q 211 43 133 43 q 326 92 286 43 q 365 249 365 143 l 365 271 l 410 271 l 410 249 q 392 123 410 171 q 344 47 374 75 q 280 10 315 19 q 211 0 244 0 z "},"d":{"ha":483,"x_min":17,"x_max":393,"o":"m 176 0 l 17 0 l 17 936 l 176 936 q 342 869 288 936 q 393 683 393 808 l 393 253 q 342 67 393 128 q 176 0 288 0 m 60 43 l 176 43 q 308 94 267 43 q 349 253 349 144 l 349 683 q 308 842 349 792 q 176 893 267 893 l 60 893 l 60 43 z "},"f":{"ha":428,"x_min":10,"x_max":346,"o":"m 346 893 l 53 893 l 53 490 l 346 490 l 346 447 l 53 447 l 53 0 l 10 0 l 10 936 l 346 936 l 346 893 l 346 893 z "},"g":{"ha":489,"x_min":14,"x_max":414,"o":"m 214 0 q 63 64 114 0 q 14 247 14 128 l 14 690 q 63 872 14 811 q 214 936 114 936 q 364 872 314 936 q 414 690 414 811 l 414 668 l 369 668 l 369 690 q 354 799 369 758 q 316 860 339 839 q 266 887 293 881 q 214 893 239 893 q 161 887 189 893 q 110 860 133 881 q 72 799 88 839 q 57 690 57 758 l 57 247 q 97 92 57 143 q 214 43 135 43 q 329 92 292 43 q 369 247 369 143 l 369 369 l 167 369 l 167 414 l 414 414 l 414 247 q 364 64 414 126 q 214 0 314 0 z "},"h":{"ha":478,"x_min":14,"x_max":386,"o":"m 342 936 l 386 936 l 386 0 l 342 0 l 342 446 l 58 446 l 58 0 l 14 0 l 14 936 l 58 936 l 58 489 l 342 489 l 342 936 l 342 936 z "},"j":{"ha":450,"x_min":0,"x_max":371,"o":"m 186 0 q 46 60 93 0 q 0 229 0 115 l 0 250 l 43 250 l 43 229 q 57 130 43 167 q 92 74 71 93 q 138 49 113 54 q 186 43 163 43 q 292 86 256 43 q 328 229 328 133 l 328 936 l 371 936 l 371 229 q 325 60 371 115 q 186 0 279 0 z "},"k":{"ha":500,"x_min":11,"x_max":464,"o":"m 464 936 l 176 507 l 464 0 l 414 0 l 150 465 l 56 325 l 56 0 l 11 0 l 11 936 l 56 936 l 56 404 l 411 936 l 464 936 l 464 936 z "},"l":{"ha":410,"x_min":6,"x_max":364,"o":"m 364 0 l 6 0 l 6 936 l 50 936 l 50 43 l 364 43 l 364 0 l 364 0 l 364 0 z "},"m":{"ha":657,"x_min":10,"x_max":565,"o":"m 53 758 l 53 0 l 10 0 l 10 936 l 47 936 l 288 101 l 526 936 l 565 936 l 565 0 l 521 0 l 521 758 l 304 0 l 271 0 l 53 758 l 53 758 z "},"n":{"ha":500,"x_min":13,"x_max":417,"o":"m 57 801 l 57 0 l 13 0 l 13 936 l 50 936 l 372 135 l 372 936 l 417 936 l 417 0 l 381 0 l 57 801 l 57 801 z "},"o":{"ha":494,"x_min":14,"x_max":413,"o":"m 213 0 q 144 10 179 0 q 79 47 108 19 q 32 123 50 75 q 14 249 14 171 l 14 689 q 63 872 14 808 q 213 936 114 936 q 363 872 313 936 q 413 689 413 810 l 413 249 q 394 123 413 171 q 347 47 376 75 q 283 10 318 19 q 213 0 247 0 m 213 893 q 97 844 133 893 q 57 689 57 793 l 57 249 q 97 92 57 143 q 213 43 135 43 q 329 92 289 43 q 368 249 368 140 l 368 689 q 329 844 368 796 q 213 893 290 893 z "},"p":{"ha":472,"x_min":15,"x_max":401,"o":"m 58 0 l 15 0 l 15 936 l 183 936 q 349 875 296 936 q 401 692 401 814 q 349 508 401 569 q 183 447 296 447 l 58 447 l 58 0 m 58 490 l 183 490 q 317 538 275 490 q 357 692 357 586 q 317 847 357 800 q 183 893 276 893 l 58 893 l 58 490 z "},"q":{"ha":483,"x_min":8,"x_max":446,"o":"m 389 -43 l 325 35 q 208 0 278 0 q 58 68 108 0 q 8 253 8 132 l 8 693 q 58 874 8 813 q 208 936 108 936 q 357 874 307 936 q 407 693 407 813 l 407 253 q 358 68 407 133 l 356 65 l 446 -43 l 389 -43 m 208 43 q 297 68 261 43 l 235 144 l 290 144 l 328 100 q 363 253 363 151 l 363 693 q 324 847 363 799 q 208 893 286 893 q 93 847 131 893 q 53 693 53 796 l 53 253 q 93 94 53 147 q 208 43 131 43 z "},"r":{"ha":483,"x_min":15,"x_max":403,"o":"m 340 426 q 403 261 403 367 l 403 1 l 358 1 l 358 261 q 313 392 358 346 q 183 439 267 439 l 163 439 l 58 439 l 58 1 l 15 1 l 15 938 l 183 938 q 348 877 296 938 q 400 689 400 817 q 349 503 400 564 q 293 460 326 476 q 340 426 319 447 m 183 483 q 315 531 276 483 q 357 689 357 581 q 317 846 357 799 q 183 893 276 893 l 58 893 l 58 483 l 163 483 l 183 483 z "},"u":{"ha":483,"x_min":10,"x_max":381,"o":"m 196 1 q 131 10 164 1 q 72 44 99 19 q 27 115 44 69 q 10 231 10 160 l 10 938 l 53 938 l 53 231 q 67 131 53 168 q 101 75 81 94 q 147 50 122 56 q 196 44 172 44 q 243 50 218 44 q 289 75 268 56 q 324 131 310 94 q 338 231 338 168 l 338 938 l 381 938 l 381 231 q 363 115 381 160 q 319 44 346 69 q 260 10 293 19 q 196 1 226 1 z "},"v":{"ha":557,"x_min":0,"x_max":503,"o":"m 457 938 l 503 938 l 268 1 l 235 1 l 0 938 l 44 938 l 251 113 l 457 938 l 457 938 z "},"w":{"ha":904,"x_min":0,"x_max":840,"o":"m 794 936 l 840 936 l 636 0 l 600 0 l 421 813 l 242 0 l 207 0 l 0 936 l 44 936 l 225 124 l 404 936 l 439 936 l 618 124 l 794 936 l 794 936 z "},"x":{"ha":544,"x_min":-6,"x_max":488,"o":"m -6 0 l 217 468 l -6 936 l 43 936 l 242 519 l 436 936 l 485 936 l 265 468 l 488 0 l 439 0 l 242 417 l 43 0 l -6 0 l -6 0 z "},"y":{"ha":579,"x_min":-14,"x_max":550,"o":"m 500 936 l 550 936 l 290 463 l 290 0 l 247 0 l 247 463 l -14 936 l 36 936 l 268 514 l 500 936 l 500 936 z "},"z":{"ha":568,"x_min":0,"x_max":463,"o":"m 56 43 l 463 43 l 463 0 l 7 0 l 7 43 l 406 893 l 0 893 l 0 936 l 456 936 l 456 896 l 56 43 l 56 43 z "},"|":{"ha":124,"x_min":18,"x_max":61,"o":"m 61 0 l 18 0 l 18 936 l 61 936 l 61 0 l 61 0 l 61 0 z "},"–":{"ha":415,"x_min":18,"x_max":357,"o":"m 357 446 l 18 446 l 18 489 l 357 489 l 357 446 l 357 446 l 357 446 z "},"—":{"ha":415,"x_min":18,"x_max":357,"o":"m 357 446 l 18 446 l 18 489 l 357 489 l 357 446 l 357 446 l 357 446 z "},"t":{"ha":557,"x_min":7,"x_max":499,"o":"m 499 938 l 499 893 l 274 893 l 274 1 l 231 1 l 231 893 l 7 893 l 7 938 l 499 938 l 499 938 z "},"s":{"ha":483,"x_min":14,"x_max":415,"o":"m 214 1 q 64 65 114 1 q 14 249 14 125 l 14 269 l 57 269 l 57 249 q 72 139 57 179 q 110 78 88 99 q 161 51 133 57 q 214 44 189 44 q 330 97 289 44 q 371 242 371 149 q 353 326 371 292 q 312 382 336 360 q 261 417 288 404 q 218 436 235 429 l 194 446 q 143 470 174 454 q 84 515 113 486 q 35 585 56 543 q 14 689 14 628 q 63 863 14 794 q 214 938 118 938 q 365 872 313 938 q 415 689 415 810 l 415 667 l 371 667 l 371 689 q 331 846 371 794 q 214 893 293 893 q 99 836 139 893 q 57 689 57 779 q 74 604 57 639 q 115 546 90 569 q 165 508 139 522 q 213 486 192 494 l 235 476 q 283 455 253 469 q 343 413 314 440 q 394 344 372 386 q 415 242 415 303 q 365 72 415 138 q 214 1 311 1 z "},"e":{"ha":421,"x_min":14,"x_max":350,"o":"m 57 893 l 57 490 l 350 490 l 350 447 l 57 447 l 57 43 l 350 43 l 350 0 l 14 0 l 14 936 l 350 936 l 350 893 l 57 893 z "},"i":{"ha":151,"x_min":32,"x_max":75,"o":"m 75 0 l 32 0 l 32 936 l 75 936 l 75 0 l 75 0 l 75 0 z "},"C":{"ha":478,"x_min":11,"x_max":410,"o":"m 211 0 q 141 10 176 0 q 76 47 106 19 q 29 123 47 75 q 11 249 11 171 l 11 689 q 29 814 11 765 q 76 890 47 863 q 141 926 106 917 q 211 936 176 936 q 280 926 244 936 q 344 890 315 917 q 392 814 374 863 q 410 689 410 765 l 410 667 l 365 667 l 365 689 q 326 844 365 796 q 211 893 286 893 q 94 844 135 893 q 56 689 56 796 l 56 249 q 96 92 56 142 q 211 43 133 43 q 326 92 286 43 q 365 249 365 143 l 365 271 l 410 271 l 410 249 q 392 123 410 171 q 344 47 374 75 q 280 10 315 19 q 211 0 244 0 z "},"A":{"ha":544,"x_min":14,"x_max":478,"o":"m 58 0 l 14 0 l 88 325 l 88 329 l 88 329 l 229 936 l 264 936 l 478 0 l 433 0 l 369 286 l 122 286 l 58 0 m 246 818 l 133 329 l 360 329 l 246 818 z "},"B":{"ha":467,"x_min":24,"x_max":385,"o":"m 285 468 q 336 428 314 454 q 385 244 385 367 q 336 61 385 122 q 178 0 285 0 l 68 0 l 24 0 l 24 43 l 24 936 l 178 936 q 336 875 285 936 q 385 692 385 814 q 336 510 385 571 q 313 486 325 496 q 285 468 300 476 m 68 490 l 178 490 q 301 538 264 490 q 340 692 340 585 q 303 847 340 800 q 178 893 265 893 l 68 893 l 68 490 m 178 43 q 303 90 265 43 q 340 244 340 136 q 301 400 340 353 q 178 447 264 447 l 68 447 l 68 43 l 178 43 z "},"˘":{"ha":1157,"x_min":0,"x_max":0,"o":""},"˙":{"ha":1157,"x_min":0,"x_max":0,"o":""},"˚":{"ha":1157,"x_min":0,"x_max":0,"o":""},"˝":{"ha":1157,"x_min":0,"x_max":0,"o":""},"˛":{"ha":1157,"x_min":0,"x_max":0,"o":""},"ˇ":{"ha":1157,"x_min":0,"x_max":0,"o":""},"ı":{"ha":151,"x_min":32,"x_max":75,"o":"m 75 0 l 32 0 l 32 936 l 75 936 l 75 0 l 75 0 l 75 0 z "},"<":{"ha":1157,"x_min":0,"x_max":0,"o":""},">":{"ha":1157,"x_min":0,"x_max":0,"o":""},"^":{"ha":1157,"x_min":0,"x_max":0,"o":""},"]":{"ha":1157,"x_min":0,"x_max":0,"o":""},"[":{"ha":1157,"x_min":0,"x_max":0,"o":""},"{":{"ha":1157,"x_min":0,"x_max":0,"o":""},"}":{"ha":1157,"x_min":0,"x_max":0,"o":""},"~":{"ha":1157,"x_min":0,"x_max":0,"o":""},"˜":{"ha":1157,"x_min":0,"x_max":0,"o":""},"™":{"ha":1214,"x_min":0,"x_max":0,"o":""},"•":{"ha":1157,"x_min":0,"x_max":0,"o":""},"ˆ":{"ha":1157,"x_min":0,"x_max":0,"o":""},"©":{"ha":1157,"x_min":0,"x_max":0,"o":""},"®":{"ha":1157,"x_min":0,"x_max":0,"o":""},"S":{"ha":483,"x_min":14,"x_max":415,"o":"m 214 1 q 64 65 114 1 q 14 249 14 125 l 14 269 l 57 269 l 57 249 q 72 139 57 179 q 110 78 88 99 q 161 51 133 57 q 214 44 189 44 q 330 97 289 44 q 371 242 371 149 q 353 326 371 292 q 312 382 336 360 q 261 417 288 404 q 218 436 235 429 l 194 446 q 143 470 174 454 q 84 515 113 486 q 35 585 56 543 q 14 689 14 628 q 63 863 14 794 q 214 938 118 938 q 365 872 313 938 q 415 689 415 810 l 415 667 l 371 667 l 371 689 q 331 846 371 794 q 214 893 293 893 q 99 836 139 893 q 57 689 57 779 q 74 604 57 639 q 115 546 90 569 q 165 508 139 522 q 213 486 192 494 l 235 476 q 283 455 253 469 q 343 413 314 440 q 394 344 372 386 q 415 242 415 303 q 365 72 415 138 q 214 1 311 1 z "}}}
